HIERARCHY
ROOT Hips
{
	OFFSET 0.000000 0.000000 0.000000
	CHANNELS 6 Xposition Yposition Zposition Zrotation Yrotation Xrotation 
	JOINT LowerBack
	{
		OFFSET 0.000000 0.000000 0.000000
		CHANNELS 3 Zrotation Yrotation Xrotation
		JOINT Spine
		{
			OFFSET 0.028270 2.035590 -0.193380
			CHANNELS 3 Zrotation Yrotation Xrotation
			JOINT Spine1
			{
				OFFSET 0.056720 2.048850 -0.042750
				CHANNELS 3 Zrotation Yrotation Xrotation
				JOINT Neck
				{
					OFFSET 0.000000 0.000000 0.000000
					CHANNELS 3 Zrotation Yrotation Xrotation
					JOINT Neck1
					{
						OFFSET -0.054170 1.746240 0.172020
						CHANNELS 3 Zrotation Yrotation Xrotation
						JOINT Head
						{
							OFFSET 0.104070 1.761360 -0.123970
							CHANNELS 3 Zrotation Yrotation Xrotation
							End Site
							{
								OFFSET 0.000000 0.000000 0.000000
							}
						}
					}
				}
				JOINT LeftShoulder
				{
					OFFSET 0.000000 0.000000 0.000000
					CHANNELS 3 Zrotation Yrotation Xrotation
					JOINT LeftArm
					{
						OFFSET 3.362410 1.200890 -0.311210
						CHANNELS 3 Zrotation Yrotation Xrotation
						JOINT LeftForeArm
						{
							OFFSET 4.983000 -0.000000 -0.000000
							CHANNELS 3 Zrotation Yrotation Xrotation
							JOINT LeftHand
							{
								OFFSET 3.483560 -0.000000 -0.000000
								CHANNELS 3 Zrotation Yrotation Xrotation
								JOINT LeftFingerBase
								{
									OFFSET 0.000000 0.000000 0.000000
									CHANNELS 3 Zrotation Yrotation Xrotation
									JOINT LeftHandIndex1
									{
										OFFSET 0.715260 -0.000000 -0.000000
										CHANNELS 3 Zrotation Yrotation Xrotation
										End Site
										{
											OFFSET 0.000000 0.000000 0.000000
										}
									}
								}
								JOINT LThumb
								{
									OFFSET 0.000000 0.000000 0.000000
									CHANNELS 3 Zrotation Yrotation Xrotation
									End Site
									{
										OFFSET 0.000000 0.000000 0.000000
									}
								}
							}
						}
					}
				}
				JOINT RightShoulder
				{
					OFFSET 0.000000 0.000000 0.000000
					CHANNELS 3 Zrotation Yrotation Xrotation
					JOINT RightArm
					{
						OFFSET -3.136600 1.374050 -0.404650
						CHANNELS 3 Zrotation Yrotation Xrotation
						JOINT RightForeArm
						{
							OFFSET -5.241900 -0.000000 -0.000000
							CHANNELS 3 Zrotation Yrotation Xrotation
							JOINT RightHand
							{
								OFFSET -3.444170 -0.000000 -0.000000
								CHANNELS 3 Zrotation Yrotation Xrotation
								JOINT RightFingerBase
								{
									OFFSET 0.000000 0.000000 0.000000
									CHANNELS 3 Zrotation Yrotation Xrotation
									JOINT RightHandIndex1
									{
										OFFSET -0.622530 -0.000000 -0.000000
										CHANNELS 3 Zrotation Yrotation Xrotation
										End Site
										{
											OFFSET 0.000000 0.000000 0.000000
										}
									}
								}
								JOINT RThumb
								{
									OFFSET 0.000000 0.000000 0.000000
									CHANNELS 3 Zrotation Yrotation Xrotation
									End Site
									{
										OFFSET 0.000000 0.000000 0.000000
									}
								}
							}
						}
					}
				}
			}
		}
	}
}
}
MOTION
Frames: 15
Frame Time: 0.008333
3.507618 16.767223 -1.240083 -89.465024 87.938504 -92.148265 0.978400 0.862098 0.697819 0.095446 0.880590 -1.928370 -3.020692 0.824306 3.671998 6.768617 -15.402697 -10.375974 -0.297363 0.021382 -0.739277 0.000000 0.000000 0.000000 -3.990620 28.989149 1.892070 -86.145879 30.410945 -6.105915 -4.501030 -14.235141 -0.042408 -8.839813 14.344334 -1.120890 -0.064903 -0.169232 -0.000000 0.000000 0.000000 0.000000 0.000000 0.000000 0.000000 4.345419 -10.795434 0.757309 30.273855 9.624602 1.516421 1.692305 42.620982 0.012570 4.566277 4.885494 0.201026 0.002837 -0.149796 0.000000 0.000000 0.000000 0.000000 0.000000 0.000000 0.000000 
3.714126 16.705910 -1.295786 -96.064683 87.971338 -98.974009 0.629055 0.735532 1.006743 0.026112 0.783551 -1.885046 -3.044461 0.730554 3.625747 6.848069 -15.367282 -10.444282 -0.310880 0.021827 -0.759142 0.000000 0.000000 0.000000 -3.919506 28.750634 1.911736 -86.075430 29.815234 -5.600564 -4.494875 -14.451012 -0.042214 -9.079218 14.265529 -1.145190 -0.063353 -0.166541 -0.000000 0.000000 0.000000 0.000000 0.000000 0.000000 0.000000 4.450177 -10.763118 0.790622 30.340357 9.588777 1.199840 1.701448 42.572469 0.012668 4.488253 4.864560 0.196730 0.005117 -0.151024 0.000000 0.000000 0.000000 0.000000 0.000000 0.000000 0.000000 
3.917460 16.647834 -1.350967 -104.538285 87.981171 -107.612949 0.282367 0.600579 1.278856 -0.042602 0.676702 -1.849301 -3.070036 0.626514 3.579825 6.912392 -15.345866 -10.494546 -0.334504 0.021113 -0.773645 0.000000 0.000000 0.000000 -3.828820 28.458995 1.917019 -85.891585 29.064291 -5.184749 -4.486307 -14.575999 -0.041577 -9.182305 14.068094 -1.142080 -0.062984 -0.162485 -0.000000 0.000000 0.000000 0.000000 0.000000 0.000000 0.000000 4.572873 -10.752529 0.812619 30.528209 9.489731 0.882388 1.712146 42.560405 0.012715 4.367823 4.847896 0.190740 0.008187 -0.152177 0.000000 0.000000 0.000000 0.000000 0.000000 0.000000 0.000000 
4.117838 16.594908 -1.406338 -114.736717 87.929510 -117.908183 -0.049089 0.459844 1.500301 -0.108207 0.562319 -1.823393 -3.098213 0.514375 3.535378 6.961820 -15.342215 -10.523570 -0.368371 0.019157 -0.781812 0.000000 0.000000 0.000000 -3.718724 28.115200 1.906145 -85.592646 28.161700 -4.898989 -4.475044 -14.607225 -0.040476 -9.120722 13.759928 -1.108963 -0.063947 -0.157065 -0.000000 0.000000 0.000000 0.000000 0.000000 0.000000 0.000000 4.715177 -10.768252 0.822238 30.838994 9.309884 0.569846 1.724769 42.584717 0.012706 4.203197 4.841931 0.183151 0.012060 -0.153231 0.000000 0.000000 0.000000 0.000000 0.000000 0.000000 0.000000 
4.315563 16.548723 -1.462395 -126.002030 87.780950 -129.201279 -0.364004 0.312938 1.664970 -0.170537 0.440213 -1.807757 -3.129393 0.393964 3.494541 7.000022 -15.362086 -10.530690 -0.412011 0.015981 -0.783455 0.000000 0.000000 0.000000 -3.586067 27.727215 1.878323 -85.179583 27.111877 -4.778331 -4.461258 -14.549001 -0.038912 -8.876064 13.348130 -1.045835 -0.066345 -0.150286 -0.000000 0.000000 0.000000 0.000000 0.000000 0.000000 0.000000 4.881924 -10.818058 0.818556 31.269883 9.045525 0.278036 1.739591 42.636558 0.012630 3.990294 4.854426 0.174165 0.016755 -0.154124 0.000000 0.000000 0.000000 0.000000 0.000000 0.000000 0.000000 
4.510914 16.510608 -1.519988 -137.024542 87.514741 -140.184797 -0.657644 0.163035 1.768597 -0.229715 0.312459 -1.803061 -3.163231 0.267295 3.456599 7.024579 -15.398211 -10.513810 -0.464717 0.011599 -0.777992 0.000000 0.000000 0.000000 -3.440091 27.300233 1.833245 -84.654321 25.933403 -4.836585 -4.444348 -14.431080 -0.036902 -8.447231 12.837661 -0.955697 -0.070092 -0.142191 -0.000000 0.000000 0.000000 0.000000 0.000000 0.000000 0.000000 5.065496 -10.893677 0.801625 31.824418 8.676559 0.005594 1.757691 42.711208 0.012498 3.737005 4.885583 0.163882 0.022164 -0.154755 0.000000 0.000000 0.000000 0.000000 0.000000 0.000000 0.000000 
4.704187 16.481391 -1.579645 -146.748473 87.145927 -149.814592 -0.936290 0.016173 1.816357 -0.288745 0.184125 -1.807434 -3.200045 0.139498 3.423246 7.039285 -15.454767 -10.474986 -0.525066 0.006174 -0.766107 0.000000 0.000000 0.000000 -3.283292 26.852324 1.770949 -84.023226 24.640745 -5.079744 -4.424495 -14.285076 -0.034506 -7.848059 12.231332 -0.844149 -0.075050 -0.132879 -0.000000 0.000000 0.000000 0.000000 0.000000 0.000000 0.000000 5.267834 -10.997399 0.772161 32.492932 8.217074 -0.226846 1.779738 42.788086 0.012310 3.442899 4.939108 0.152303 0.028256 -0.155018 0.000000 0.000000 0.000000 0.000000 0.000000 0.000000 0.000000 
4.895699 16.461571 -1.642159 -154.530082 86.710395 -157.460866 -1.184500 -0.117230 1.815211 -0.345722 0.064051 -1.819797 -3.240543 0.019375 3.392150 7.040508 -15.516156 -10.413047 -0.591873 -0.000215 -0.747608 0.000000 0.000000 0.000000 -3.127646 26.394790 1.692568 -83.294158 23.265551 -5.485354 -4.401117 -14.167076 -0.031801 -7.111606 11.531179 -0.719193 -0.080892 -0.122517 -0.000000 0.000000 0.000000 0.000000 0.000000 0.000000 0.000000 5.475834 -11.107613 0.731656 33.277260 7.652674 -0.427871 1.807292 42.856576 0.012097 3.126052 5.008231 0.139727 0.034806 -0.154785 0.000000 0.000000 0.000000 0.000000 0.000000 0.000000 0.000000 
5.085772 16.451195 -1.707827 -160.458500 86.240479 -163.230317 -1.389964 -0.234307 1.776788 -0.397812 -0.044927 -1.836884 -3.285515 -0.090078 3.366081 7.034800 -15.595593 -10.334097 -0.663165 -0.007275 -0.724390 0.000000 0.000000 0.000000 -2.975565 25.950568 1.599228 -82.479143 21.827480 -6.028093 -4.374967 -14.123839 -0.028886 -6.284129 10.740521 -0.589830 -0.087302 -0.111288 -0.000000 0.000000 0.000000 0.000000 0.000000 0.000000 0.000000 5.696413 -11.236888 0.681692 34.151572 7.029186 -0.563635 1.840787 42.881368 0.011860 2.784937 5.093190 0.126053 0.041791 -0.153919 0.000000 0.000000 0.000000 0.000000 0.000000 0.000000 0.000000 
5.274544 16.449994 -1.777698 -164.543043 85.765525 -167.144759 -1.509612 -0.329825 1.707769 -0.435558 -0.138970 -1.859365 -3.334302 -0.185110 3.337373 7.006386 -15.649331 -10.232465 -0.738100 -0.015037 -0.695016 0.000000 0.000000 0.000000 -2.845988 25.513939 1.495305 -81.589692 20.379478 -6.609640 -4.344670 -14.240912 -0.025859 -5.425588 9.871029 -0.465961 -0.093761 -0.099512 -0.000000 0.000000 0.000000 0.000000 0.000000 0.000000 0.000000 5.893840 -11.334478 0.624074 35.132909 6.287164 -0.689254 1.882443 42.869925 0.011670 2.462970 5.175870 0.112780 0.048724 -0.152335 0.000000 0.000000 0.000000 0.000000 0.000000 0.000000 0.000000 
5.462464 16.457385 -1.851632 -167.313126 85.293246 -169.746010 -1.547490 -0.411708 1.618230 -0.458569 -0.224854 -1.883796 -3.386505 -0.272190 3.310973 6.966793 -15.702760 -10.117738 -0.814822 -0.023153 -0.662289 0.000000 0.000000 0.000000 -2.730806 25.102911 1.383046 -80.642165 18.940186 -7.189820 -4.312669 -14.556377 -0.022829 -4.592732 8.936953 -0.355087 -0.100044 -0.087430 -0.000000 0.000000 0.000000 0.000000 0.000000 0.000000 0.000000 6.086194 -11.430745 0.560360 36.183293 5.498601 -0.760093 1.932266 42.781556 0.011519 2.157160 5.254043 0.099607 0.055615 -0.149862 0.000000 0.000000 0.000000 0.000000 0.000000 0.000000 0.000000 
5.649704 16.472518 -1.929948 -168.980660 84.831736 -171.251295 -1.488907 -0.482364 1.511236 -0.463114 -0.305425 -1.910279 -3.440819 -0.354115 3.284155 6.910913 -15.740773 -9.990353 -0.892353 -0.031533 -0.626370 0.000000 0.000000 0.000000 -2.633221 24.713892 1.266383 -79.649462 17.548223 -7.673835 -4.279173 -15.126075 -0.019879 -3.836561 7.961720 -0.262410 -0.105863 -0.075396 -0.000000 0.000000 0.000000 0.000000 0.000000 0.000000 0.000000 6.260201 -11.509356 0.492460 37.297620 4.654592 -0.799673 1.991539 42.611623 0.011442 1.896206 5.313784 0.087932 0.062163 -0.146422 0.000000 0.000000 0.000000 0.000000 0.000000 0.000000 0.000000 
5.836597 16.494444 -2.012642 -169.788795 84.380108 -171.903866 -1.333058 -0.546274 1.387441 -0.448404 -0.385172 -1.938529 -3.496134 -0.435273 3.257451 6.840780 -15.769779 -9.854851 -0.969475 -0.039994 -0.588489 0.000000 0.000000 0.000000 -2.550285 24.346162 1.148045 -78.621030 16.230116 -7.984582 -4.244474 -15.982892 -0.017068 -3.190635 6.972297 -0.189430 -0.111085 -0.063736 -0.000000 0.000000 0.000000 0.000000 0.000000 0.000000 0.000000 6.416970 -11.578274 0.422465 38.457217 3.780340 -0.807539 2.061010 42.347102 0.011449 1.694484 5.346636 0.078457 0.068245 -0.141971 0.000000 0.000000 0.000000 0.000000 0.000000 0.000000 0.000000 
6.023345 16.522094 -2.099506 -169.926759 83.931837 -171.888040 -1.082321 -0.607226 1.243000 -0.414567 -0.468020 -1.969548 -3.551773 -0.519550 3.230152 6.758186 -15.791138 -9.714269 -1.045555 -0.048440 -0.549377 0.000000 0.000000 0.000000 -2.475743 23.991157 1.030717 -77.561605 15.009647 -8.062763 -4.207885 -17.142970 -0.014419 -2.667038 5.995627 -0.134847 -0.115697 -0.052701 -0.000000 0.000000 0.000000 0.000000 0.000000 0.000000 0.000000 6.556734 -11.639629 0.352542 39.649816 2.883439 -0.798511 2.141534 41.987406 0.011542 1.571137 5.343400 0.072178 0.073703 -0.136509 0.000000 0.000000 0.000000 0.000000 0.000000 0.000000 0.000000 
6.210227 16.554403 -2.190151 -169.564369 83.473813 -171.365011 -0.744608 -0.669064 1.072101 -0.363034 -0.557795 -2.004557 -3.607727 -0.610705 3.202297 6.668100 -15.814619 -9.572777 -1.120161 -0.056779 -0.510021 0.000000 0.000000 0.000000 -2.401967 23.637697 0.916166 -76.470581 13.901915 -7.877835 -4.167566 -18.603259 -0.011942 -2.257238 5.054963 -0.095061 -0.119765 -0.042438 -0.000000 0.000000 0.000000 0.000000 0.000000 0.000000 0.000000 6.685788 -11.704659 0.284892 40.860885 1.978931 -0.781439 2.233650 41.534078 0.011707 1.537006 5.298426 0.069696 0.078475 -0.130080 0.000000 0.000000 0.000000 0.000000 0.000000 0.000000 0.000000 
